<svg width="32" height="32" viewBox="0 0 32 32" fill="none" xmlns="http://www.w3.org/2000/svg">
  <rect width="32" height="32" rx="16" fill="#1F2937" />
  <path
    d="M16 8C11.5817 8 8 11.5817 8 16C8 20.4183 11.5817 24 16 24C20.4183 24 24 20.4183 24 16C24 11.5817 20.4183 8 16 8ZM16 22.2857C12.5331 22.2857 9.71429 19.4669 9.71429 16C9.71429 12.5331 12.5331 9.71429 16 9.71429C19.4669 9.71429 22.2857 12.5331 22.2857 16C22.2857 19.4669 19.4669 22.2857 16 22.2857Z"
    fill="#9CA3AF"
  />
  <path
    d="M16 11.4286C14.1426 11.4286 12.5714 12.9999 12.5714 14.8572C12.5714 15.3811 12.9957 15.8054 13.5196 15.8054C14.0434 15.8054 14.4677 15.3811 14.4677 14.8572C14.4677 14.0485 15.1913 13.3249 16 13.3249C16.8087 13.3249 17.5323 14.0485 17.5323 14.8572C17.5323 16.7146 13.7143 16.3806 13.7143 19.7146C13.7143 20.2385 14.1386 20.6629 14.6624 20.6629H17.3376C17.8614 20.6629 18.2857 20.2385 18.2857 19.7146C18.2857 18.4419 19.4286 17.5323 19.4286 15.4286C19.4286 12.9999 17.8574 11.4286 16 11.4286Z"
    fill="#9CA3AF"
  />
</svg>
