<svg width="24" height="24" viewBox="0 0 24 24" fill="none" xmlns="http://www.w3.org/2000/svg">
  <defs>
    <linearGradient id="paint0_linear" x1="3" y1="21" x2="21" y2="3" gradientUnits="userSpaceOnUse">
      <stop stop-color="#9945FF" />
      <stop offset="0.5" stop-color="#8752F3" />
      <stop offset="1" stop-color="#00D18C" />
    </linearGradient>
  </defs>
  <rect width="24" height="24" rx="12" fill="url(#paint0_linear)"/>
  <path d="M7.2 16.5h9.6a.8.8 0 0 1 .56 1.36l-1.64 1.64a1.6 1.6 0 0 1-1.13.47H5.9a.8.8 0 0 1-.57-1.36l1.64-1.64c.3-.3.71-.47 1.13-.47Zm0-7h9.6a.8.8 0 0 0 .56-1.36L15.72 6.5a1.6 1.6 0 0 0-1.13-.47H5.9a.8.8 0 0 0-.57 1.36l1.64 1.64c.3.3.71.47 1.13.47Zm-1.3 3.5c0-.44.36-.8.8-.8h9.6a.8.8 0 0 1 .57 1.37L15.23 14.1a1.6 1.6 0 0 1-1.14.47H5.9a.8.8 0 0 1-.8-.8Z" fill="#0f172a" fill-opacity="0.9"/>
</svg>
